# xmcd
#
# Track frame offsets:
#	150
#	10785
#	33190
#	47285
#	69385
#	81267
#	98607
#	115025
#	134955
#	156660
#	178437
#	191622
#	200305
#	215035
#	238985
#	248827
#
# Disc length: 3525 seconds
#
# Revision: 9
# Processed by: cddbd v1.5.2PL0 Copyright (c) Steve Scherf et al.
# Submitted via: audiograbber 1.83.01
#
DISCID=e50dc310
DTITLE=Various Artist - The Blues Collection Disc 3
DYEAR=1995
DGENRE=Blues
TTITLE0=John Lee Hooker - She's mine
TTITLE1=Gary Moore - Bad news
TTITLE2=Eric Clapton and Jimmy Page - Draggin' My tail
TTITLE3=Muddy Waters - What's The Matter With The Mill
TTITLE4=The All Stars and Jimmy Page - Steelin'
TTITLE5=Albert Lee - Crosstown link
TTITLE6=The Paul Delay Band - All My Money Gone
TTITLE7=Earl Hooker - End Of The Blues
TTITLE8=Cary Bell and Buster Benton - Born With The Blues
TTITLE9=The Mighty House Rockers - Blue light
TTITLE10=Muddy Waters - Blow Wind Blow
TTITLE11=John Lee Hooker - Hobo Blues
TTITLE12=Billy Boy Arnold and Tony McPhee - Don't Stay Out All Night
TTITLE13=Troyce Key and JJ Malone - I Gotta New Car - Framed
TTITLE14=John Lee Hooker - I'm Leaving
TTITLE15=Sunnyland Slim - I Had It So Hard
EXTD=YEAR: 1995
EXTT0=John Lee Hooker
EXTT1=Gary Moore
EXTT2=Eric Clapton and Jimmy Page
EXTT3=Muddy Waters
EXTT4=All Stars and Jimmy Page
EXTT5=Albert Lee
EXTT6=Paul Delay Band
EXTT7=Earl Hooker
EXTT8=Cary Bell and Buster Benton
EXTT9=Mighty House Rockers
EXTT10=Muddy Waters
EXTT11=John Lee Hooker
EXTT12=Billy Arnold and Tony McPhee
EXTT13=Troyce Key and JJ Malone
EXTT14=John Lee Hooker
EXTT15=
PLAYORDER=
